<svg width="97" height="19" viewBox="0 0 97 19" fill="none" xmlns="http://www.w3.org/2000/svg">
<g clip-path="url(#clip0_475_2097)">
<path fill-rule="evenodd" clip-rule="evenodd" d="M22.8558 6.64966C21.4986 2.98504 17.1553 0.270508 12.2679 0.270508C6.02316 0.270508 1 4.47803 1 9.49992C1 12.7574 3.0359 15.4719 5.88744 17.1006L10.9106 6.64966H22.8571H22.8558Z" fill="white"/>
<path fill-rule="evenodd" clip-rule="evenodd" d="M12.2679 18.7293C18.3769 18.7293 23.4 14.6575 23.4 9.49988V8.41406H10.6392L10.5034 8.68552C14.3051 9.49988 12.4036 12.7573 9.55334 18.4578C10.5034 18.7293 11.3178 18.7293 12.2679 18.7293Z" fill="white"/>
<path fill-rule="evenodd" clip-rule="evenodd" d="M46.8845 3.93506H36.1595C33.3093 4.20651 31.4078 5.29232 30.0506 7.1925C28.9648 8.82122 28.2861 10.7214 28.1504 12.7573C28.1504 15.7433 29.7791 17.5077 32.9021 17.9149H40.7755C42.54 17.7792 43.7615 16.9648 44.3057 15.0646L45.663 9.63557H37.9253C37.7895 10.3142 37.5181 10.8571 37.3824 11.5357H40.9125C40.6411 12.6216 40.2339 13.8431 39.9624 14.9289C39.691 15.7433 39.2838 16.1504 38.6052 16.0147H35.075C33.9892 16.0147 33.1748 15.3361 32.9034 14.1146C32.7677 13.7074 32.7677 13.5716 32.7677 13.1645C32.9034 11.4 33.4463 9.90703 33.9892 8.54976C34.8036 6.92104 36.0251 6.10668 37.6551 5.83523H46.3429L46.8858 3.93506H46.8845Z" fill="white"/>
<path fill-rule="evenodd" clip-rule="evenodd" d="M45.663 17.9149L49.3289 3.93506L60.3253 4.07079C63.8555 4.20651 64.3984 6.10668 63.99 8.00686C63.447 10.0428 61.4111 11.4 59.5097 11.4L62.9041 17.9149H59.9169C58.4239 17.9149 57.4738 17.372 56.7952 16.1504L53.4007 9.7713H55.7081C56.7939 9.7713 57.744 9.63557 58.4226 9.22839C59.5084 8.68549 59.9156 7.46395 59.6441 6.51386C59.5084 6.10668 59.237 5.83523 58.6941 5.6995H53.3994L50.1407 17.9149H45.6605H45.663Z" fill="white"/>
<path fill-rule="evenodd" clip-rule="evenodd" d="M80.8226 4.0708H71.5919C66.433 4.20653 65.2114 8.00687 64.8043 10.45C64.5328 12.7573 64.5328 17.1006 68.8773 17.9149H77.8366L78.2438 16.1505H71.8633C69.8274 15.7433 69.0131 14.1146 69.1488 11.4H78.5152L79.0581 9.77132H69.419C69.6904 7.73542 70.6405 6.24243 72.9491 5.56379H80.2796L80.8226 4.0708Z" fill="white"/>
<path fill-rule="evenodd" clip-rule="evenodd" d="M96.435 4.0708H87.2043C82.0454 4.20653 80.6881 8.00687 80.4167 10.45C80.1452 12.7573 80.1452 17.1006 84.4898 17.9149H93.449L93.8562 16.1505H87.4757C85.4398 15.7433 84.4885 14.1146 84.7612 11.4H93.9919L94.6705 9.77132H85.0314C85.3028 7.73542 86.2529 6.24243 88.5616 5.56379H95.8921L96.435 4.0708Z" fill="white"/>
</g>
<defs>
<clipPath id="clip0_475_2097">
<rect width="95.435" height="18.4588" fill="white" transform="translate(0.70752 0.270508)"/>
</clipPath>
</defs>
</svg>
