<svg width="109" height="18" viewBox="0 0 109 18" fill="none" xmlns="http://www.w3.org/2000/svg">
<path d="M0 5.94509V11.6577L0.0945313 11.5715C0.378125 11.3098 0.982552 10.7492 1.13151 10.6083C1.33776 10.4157 2.26589 9.55609 2.82161 9.04434C3.04219 8.84021 3.38307 8.52396 3.57786 8.34284C3.77552 8.15884 4.03333 7.92021 4.15078 7.81096C4.27109 7.69884 4.46589 7.51771 4.58333 7.40846C4.70365 7.29634 4.94141 7.07496 5.11328 6.91684C5.28516 6.75871 5.60026 6.46546 5.8151 6.26709C6.19896 5.90771 6.57708 5.55696 7.59401 4.61971C7.88333 4.35234 8.21849 4.04184 8.33594 3.92971C8.45339 3.81471 8.7112 3.57609 8.90885 3.39496C9.10651 3.21384 9.43594 2.91196 9.63932 2.71934C9.84557 2.52671 10.1607 2.23634 10.3411 2.06959C10.5216 1.90571 10.8052 1.64121 10.9742 1.48309C11.1432 1.32496 11.5013 0.994339 11.7677 0.749964C12.037 0.505589 12.2576 0.287089 12.2576 0.266964C12.2604 0.241089 11.0172 0.232464 6.13021 0.232464H0V5.94509Z" fill="white"/>
<path d="M24.5323 5.25504C24.5237 5.29816 24.5037 5.37291 24.4922 5.42179C24.4779 5.46779 24.3891 5.81854 24.2917 6.19804C24.1943 6.57754 24.0797 7.02892 24.0339 7.20429C23.988 7.37679 23.8849 7.77929 23.8047 8.09554C23.7245 8.41179 23.6128 8.84591 23.5584 9.05867C23.5011 9.27141 23.3865 9.71704 23.3034 10.0505C23.1115 10.8067 22.9453 11.4478 22.8336 11.8762C22.7878 12.0573 22.6446 12.615 22.5185 13.1124C22.3896 13.6098 22.2235 14.2624 22.1461 14.5643C22.0688 14.8633 21.9341 15.3952 21.8425 15.743C21.6104 16.6544 21.4643 17.2208 21.3669 17.5888C21.3211 17.7642 21.2839 17.9309 21.2839 17.9568C21.2839 17.9999 21.6906 18.0028 26.5633 17.9913C29.4651 17.9855 31.9057 17.9712 31.9831 17.9597C32.4701 17.8935 32.7594 17.8447 32.9857 17.7929C35.369 17.2553 37.2597 15.8925 38.2594 13.9893C38.6089 13.3223 38.838 12.5604 38.9469 11.7037C38.9841 11.3989 38.9899 11.1804 38.9784 10.6687C38.9526 9.58767 38.7951 8.87754 38.3998 8.06679C37.6836 6.59192 36.3258 5.67766 34.3464 5.33841C33.5242 5.19466 33.5529 5.19754 28.9266 5.18604L24.5524 5.17454L24.5323 5.25504ZM31.4302 8.22779C32.2466 8.31692 32.8826 8.61879 33.2321 9.08741C33.5386 9.49854 33.6732 9.98442 33.6732 10.6974C33.6732 11.1833 33.6302 11.5513 33.5128 12.0429C33.0401 14.0094 31.6909 15.1335 29.4766 15.4009C29.2617 15.4268 28.8263 15.4383 28.2219 15.4412C27.3539 15.4412 27.2966 15.4383 27.311 15.3894C27.3196 15.3635 27.4084 15.0099 27.5115 14.6074C27.6146 14.2049 27.8094 13.4459 27.944 12.9255C28.0787 12.4023 28.2534 11.718 28.3336 11.4018C28.4138 11.0855 28.5169 10.6917 28.5599 10.5249C28.6029 10.3582 28.7518 9.78316 28.8865 9.24554C29.024 8.70792 29.1414 8.25079 29.1472 8.23067C29.1643 8.18466 31.0034 8.18179 31.4302 8.22779Z" fill="white"/>
<path d="M45.3034 6.43388C44.9109 7.12675 44.381 8.06687 44.1203 8.52687C43.8596 8.984 43.5417 9.5475 43.4128 9.7775C42.9974 10.5078 40.362 15.1796 40.1099 15.6281C39.9781 15.8639 39.7375 16.2923 39.5742 16.5769C38.8953 17.7757 38.7865 17.9684 38.7865 17.9856C38.7865 17.9942 39.4482 18 40.256 18H41.7227L42.2583 17.0426C42.5563 16.5194 42.8227 16.045 42.8542 15.9932L42.9115 15.9012H45.756H48.6034L48.6664 16.2376C48.7008 16.4245 48.7495 16.6746 48.7724 16.7925C48.7925 16.9104 48.8354 17.1375 48.8669 17.2956C48.8956 17.4538 48.9386 17.678 48.9586 17.7901L48.993 18H51.6828C53.1609 18 54.3698 17.9942 54.3698 17.9828C54.3698 17.9741 54.2208 17.1777 54.0404 16.2089C53.857 15.24 53.6852 14.3056 53.6508 14.1331C53.6193 13.9577 53.582 13.7594 53.5677 13.6875C53.5362 13.5265 53.5448 13.5782 52.8516 9.86375C52.5365 8.179 52.2586 6.70413 52.2386 6.58625C52.2156 6.46838 52.1669 6.21537 52.1326 6.02563C52.0982 5.83587 52.0495 5.57137 52.0237 5.43625L51.975 5.19187L48.993 5.18325L46.0109 5.1775L45.3034 6.43388ZM47.2771 8.80575C47.3229 9.04725 47.3888 9.40662 47.4261 9.605C47.638 10.7291 47.9818 12.5835 47.9818 12.6151C47.9818 12.6467 47.6724 12.6525 46.3604 12.6525C45.4695 12.6525 44.7448 12.6439 44.7505 12.6295C44.7591 12.6094 44.9854 12.2069 46.0768 10.2806C46.3633 9.77462 46.7242 9.13638 46.8789 8.86325C47.0336 8.593 47.1682 8.36875 47.1768 8.36875C47.1883 8.36875 47.2341 8.56713 47.2771 8.80575Z" fill="white"/>
<path d="M59.486 5.70069C59.4143 5.99106 59.2969 6.45394 59.2253 6.72994C58.9302 7.86844 58.8357 8.23931 58.6953 8.78556C58.5406 9.39219 58.1281 10.9907 57.9792 11.5743C57.9305 11.7641 57.793 12.2931 57.6755 12.7531C57.5581 13.2102 57.4005 13.8312 57.3232 14.1331C57.2459 14.4321 57.0969 15.0157 56.9909 15.4268C56.8878 15.8379 56.6987 16.5711 56.5727 17.0541C56.4495 17.5371 56.3464 17.9482 56.3464 17.9683C56.3464 17.9913 57.0138 17.9971 59.0305 17.9942L61.7146 17.9856L61.7919 17.6837C61.9065 17.2237 62.2875 15.7431 62.4164 15.2399C62.4794 14.9956 62.5912 14.5614 62.6628 14.2768C62.7344 13.9922 62.8375 13.5897 62.8919 13.3856C62.9464 13.1786 63.061 12.7272 63.1498 12.3793C63.2386 12.0314 63.3761 11.4996 63.4534 11.2006C63.5852 10.6859 63.8774 9.54456 64.2927 7.92306C64.393 7.52631 64.5362 6.97144 64.6107 6.68681C64.6823 6.40219 64.794 5.96806 64.8571 5.72369C64.9201 5.47931 64.9774 5.25506 64.986 5.22631C65.0003 5.18031 64.8599 5.17744 62.3104 5.17744H59.6177L59.486 5.70069Z" fill="white"/>
<path d="M68.1313 5.25513C68.1227 5.30112 68.0911 5.42475 68.0625 5.53687C68.0052 5.74675 67.9107 6.11187 67.5898 7.37687C67.4839 7.788 67.3349 8.36875 67.2576 8.67062C67.1802 8.96962 67.0255 9.57337 66.9138 10.0075C66.7276 10.7349 66.6589 11.0109 66.3867 12.0631C66.1776 12.871 66.0516 13.3597 65.8596 14.1188C65.6305 15.0157 65.4185 15.8409 65.1635 16.8212C65.069 17.1921 64.963 17.609 64.9258 17.747L64.8628 18H67.5497C70.082 18 70.2367 17.9971 70.251 17.9482C70.2654 17.8994 70.3255 17.6636 70.569 16.7206C70.6406 16.436 70.7523 16.0076 70.8125 15.7719C71.1563 14.4321 71.225 14.1705 71.2766 13.9606C71.3081 13.8341 71.3425 13.722 71.3539 13.7076C71.3654 13.6961 71.4026 13.7249 71.437 13.7709C71.5229 13.8888 72.6888 15.5045 73.3563 16.4331C73.6628 16.8586 74.0008 17.3244 74.1068 17.4681C74.2099 17.609 74.3388 17.7872 74.3932 17.862L74.4878 18H77.5214C79.9419 18 80.5521 17.9914 80.5349 17.9626C80.5234 17.9454 80.4232 17.8016 80.3115 17.6464C80.1997 17.4911 80.0622 17.3014 80.0078 17.2237C79.9534 17.1461 79.7443 16.8586 79.5466 16.5855C79.349 16.3124 79.0138 15.8495 78.8047 15.5563C78.5956 15.263 78.375 14.9583 78.3177 14.8806C78.1573 14.6593 77.8049 14.1762 77.4984 13.745C77.3466 13.5322 77.1719 13.2908 77.1146 13.2131C77.0573 13.1326 76.8425 12.8394 76.6391 12.5576C76.4357 12.273 76.1435 11.8676 75.9888 11.6549C75.7167 11.2811 75.7081 11.2639 75.7596 11.215C75.7883 11.1891 76.0232 10.9792 76.2839 10.7521C76.5445 10.525 76.7966 10.3036 76.8425 10.2634C76.8911 10.2203 77.5672 9.628 78.3464 8.94088C79.1255 8.25663 79.8474 7.62412 79.9505 7.53212C80.0536 7.443 80.363 7.16988 80.638 6.93125C80.913 6.68975 81.1909 6.44538 81.2539 6.38787C81.3169 6.33037 81.4602 6.20675 81.569 6.11187C81.6807 6.017 81.7953 5.91638 81.8268 5.88762C81.8583 5.856 82.0503 5.68925 82.2536 5.51388L82.6203 5.19187L79.9849 5.18325L77.3466 5.1775L75.393 6.89388C74.3159 7.83975 73.3247 8.71087 73.1901 8.82875C73.0526 8.94662 72.832 9.13925 72.7031 9.25712C72.5714 9.375 72.4596 9.45837 72.4539 9.44112C72.4482 9.42387 72.4883 9.237 72.5427 9.02713C72.5971 8.81437 72.7003 8.41475 72.7719 8.13875C72.8406 7.86275 72.9638 7.38262 73.044 7.075C73.1242 6.76737 73.2646 6.2125 73.3591 5.8445L73.5281 5.1775H70.8383H68.1484L68.1313 5.25513Z" fill="white"/>
<path d="M85.8659 6.04569C85.7456 6.52581 85.5823 7.15544 85.5078 7.44869C85.2729 8.36581 85.0524 9.22544 84.9034 9.80619C84.6886 10.6428 84.511 11.3328 84.4164 11.7037C84.3677 11.8848 84.2646 12.2873 84.1873 12.5949C84.0326 13.1929 83.8464 13.9289 83.6888 14.5356C83.6344 14.7397 83.5198 15.1939 83.431 15.5418C83.2735 16.1628 83.2076 16.4216 82.9469 17.4307C82.8753 17.7096 82.8151 17.9511 82.8151 17.9683C82.8151 17.9913 83.5714 17.9971 85.4992 17.9942L88.1805 17.9856L88.3037 17.5112C88.3696 17.2496 88.4899 16.7838 88.5672 16.4762C88.7248 15.8696 88.8537 15.3664 89.1229 14.3199C89.2175 13.9491 89.3578 13.3971 89.4352 13.0981C89.5125 12.7962 89.6873 12.1177 89.8219 11.5887C89.9594 11.0597 90.1313 10.3869 90.2057 10.0937C90.2802 9.80044 90.455 9.12769 90.5896 8.59869C90.7242 8.06969 90.9018 7.38256 90.9792 7.07494C91.0594 6.76731 91.194 6.23544 91.2828 5.89619C91.3688 5.55694 91.4461 5.25506 91.4547 5.22631C91.469 5.18031 91.3287 5.17744 88.7792 5.17744H86.0893L85.8659 6.04569Z" fill="white"/>
<path d="M96.6224 5.20625L94.6315 5.22062L94.5857 5.4075C94.5399 5.58575 94.2734 6.63225 94.0615 7.44875C93.8867 8.12725 93.712 8.81437 93.4427 9.86375C93.2995 10.4244 93.1305 11.077 93.0703 11.3156C92.8956 11.9913 92.7438 12.5893 92.5833 13.2131C92.5031 13.5294 92.3971 13.9348 92.3513 14.1159C92.3055 14.2941 92.1766 14.7944 92.0677 15.2227C91.956 15.6511 91.8013 16.2549 91.724 16.5625C91.6438 16.8701 91.532 17.3014 91.4776 17.5199C91.4232 17.7384 91.3688 17.9368 91.3602 17.9598C91.3487 17.9942 91.6008 18 93.1076 18C94.0787 18 94.8779 17.9885 94.8865 17.977C94.8922 17.9655 94.9982 17.5716 95.1156 17.1087C95.2359 16.643 95.3964 16.0134 95.4737 15.7144C95.6198 15.148 95.8547 14.228 96.124 13.1844C96.2099 12.8509 96.3846 12.1638 96.5164 11.6549C96.6453 11.1431 96.7599 10.7263 96.7685 10.7263C96.78 10.7263 98.1349 14.1935 99.5386 17.8189L99.6073 18H102.566H105.523L105.557 17.8764C105.574 17.8102 105.66 17.4768 105.746 17.1375C105.832 16.7982 105.944 16.3699 105.99 16.1888C106.084 15.8294 106.551 14.0009 106.892 12.6669C107.009 12.2069 107.21 11.4306 107.336 10.9419C107.462 10.4503 107.668 9.64812 107.791 9.15938C107.917 8.66775 108.086 8.01513 108.167 7.7075C108.244 7.39987 108.422 6.71275 108.556 6.18375C108.691 5.65475 108.808 5.212 108.817 5.2005C108.823 5.18612 108.029 5.1775 107.052 5.1775C106.073 5.1775 105.273 5.18612 105.273 5.19475C105.273 5.20337 105.23 5.38163 105.176 5.58862C105.122 5.7985 104.993 6.3045 104.887 6.71562C104.784 7.12675 104.66 7.604 104.615 7.77938C104.48 8.29113 104.374 8.70225 104.13 9.6625C103.824 10.8585 103.58 11.813 103.472 12.2327C103.423 12.4196 103.383 12.5778 103.383 12.5835C103.383 12.5893 103.374 12.595 103.363 12.595C103.34 12.595 103.317 12.5433 103.114 12.02C102.979 11.6635 102.847 11.3243 102.687 10.9131C102.632 10.7694 102.526 10.4991 102.452 10.3094C102.38 10.1196 102.183 9.61362 102.016 9.18812C101.85 8.75975 101.658 8.26812 101.592 8.09562C101.524 7.92025 101.409 7.62412 101.335 7.43437C100.876 6.26138 100.587 5.51388 100.533 5.36438L100.47 5.19187H99.5414C99.0315 5.19187 97.7167 5.19763 96.6224 5.20625Z" fill="white"/>
</svg>
