<svg width="36" height="37" viewBox="0 0 36 37" fill="none" xmlns="http://www.w3.org/2000/svg">
<g clip-path="url(#clip0_804_30)">
<path d="M32.4434 21.7398C32.1523 21.0199 31.3326 20.6719 30.6126 20.9632C29.8925 21.2543 29.5448 22.0739 29.8359 22.794L31.4921 26.8908L26.5732 24.7224C26.2171 24.5655 25.8119 24.563 25.454 24.7157C23.773 25.433 21.9721 25.7966 20.1016 25.7966C12.573 25.7966 7.51565 19.902 7.51565 14.3965C7.51565 8.11043 13.1617 2.99633 20.1016 2.99633C27.0415 2.99633 32.6875 8.11043 32.6875 14.3965C32.6875 14.8869 32.6418 15.4742 32.5622 16.0076C32.4476 16.7757 32.9774 17.4913 33.7456 17.6059C34.5138 17.7208 35.2294 17.1907 35.3439 16.4225C35.4445 15.7482 35.5 15.0287 35.5 14.3965C35.5 10.5764 33.8823 6.99204 30.9449 4.30365C28.0423 1.64697 24.1913 0.183838 20.1016 0.183838C16.0118 0.183838 12.1609 1.64697 9.2582 4.30358C6.6333 6.70601 5.06337 9.82422 4.75885 13.1865C1.45719 15.3729 -0.499953 18.8765 -0.499953 22.6504C-0.499953 25.0078 0.242756 27.2446 1.65653 29.1695L-0.397438 34.2504C-0.611961 34.781 -0.4835 35.3887 -0.0725246 35.7871C0.195295 36.0468 0.548192 36.1838 0.906574 36.1838C1.09803 36.1837 1.29111 36.1447 1.4735 36.0643L7.39584 33.4536C8.88562 34.0081 10.4604 34.2889 12.0859 34.2889C12.121 34.2889 12.1556 34.2862 12.1901 34.2836C14.5411 34.2658 16.8268 33.6474 18.8063 32.4902C20.5795 31.4535 22.038 30.0294 23.0606 28.3476C24.0589 28.1683 25.0347 27.8974 25.9818 27.5354L33.5264 30.8612C33.7089 30.9415 33.9019 30.9807 34.0934 30.9807C34.4517 30.9806 34.8047 30.8437 35.0725 30.584C35.4835 30.1856 35.612 29.578 35.3974 29.0473L32.4434 21.7398ZM12.086 31.4728C12.0668 31.4728 12.0481 31.4749 12.0291 31.4757C10.5932 31.4684 9.21109 31.1862 7.92037 30.6355C7.56255 30.4827 7.15734 30.4851 6.80128 30.6421L3.50806 32.0938L4.57041 29.4659C4.76679 28.9801 4.67672 28.4253 4.33683 28.0266C3.0125 26.4729 2.31254 24.6139 2.31254 22.6504C2.31254 20.4031 3.25789 18.2739 4.91192 16.6593C5.42688 19.4666 6.87989 22.1519 9.07173 24.2614C11.7992 26.8864 15.4069 28.4071 19.3026 28.5902C17.4736 30.3906 14.8563 31.4728 12.086 31.4728Z" fill="#86BE4F"/>
<path d="M20.0312 15.8635C20.8079 15.8635 21.4375 15.2339 21.4375 14.4573C21.4375 13.6806 20.8079 13.051 20.0312 13.051C19.2546 13.051 18.625 13.6806 18.625 14.4573C18.625 15.2339 19.2546 15.8635 20.0312 15.8635Z" fill="#86BE4F"/>
<path d="M25.6562 15.8635C26.4329 15.8635 27.0625 15.2339 27.0625 14.4573C27.0625 13.6806 26.4329 13.051 25.6562 13.051C24.8796 13.051 24.25 13.6806 24.25 14.4573C24.25 15.2339 24.8796 15.8635 25.6562 15.8635Z" fill="#86BE4F"/>
<path d="M14.4062 15.8635C15.1829 15.8635 15.8125 15.2339 15.8125 14.4573C15.8125 13.6806 15.1829 13.051 14.4062 13.051C13.6296 13.051 13 13.6806 13 14.4573C13 15.2339 13.6296 15.8635 14.4062 15.8635Z" fill="#86BE4F"/>
</g>
<defs>
<clipPath id="clip0_804_30">
<rect width="36" height="36" fill="white" transform="translate(0 0.183838)"/>
</clipPath>
</defs>
</svg>
