<svg width="24" height="24" viewBox="0 0 24 24" fill="none" xmlns="http://www.w3.org/2000/svg">
<g clip-path="url(#clip0_431_125)">
<path d="M18.37 5.34998C17.62 5.34998 17 5.95998 17 6.71998C17 7.47998 17.61 8.08998 18.37 8.08998C19.13 8.08998 19.74 7.47998 19.74 6.71998C19.74 5.95998 19.13 5.34998 18.37 5.34998Z" fill="#86BE4F"/>
<path d="M12.74 6.34998C9.58 6.34998 7 8.91998 7 12.09C7 15.26 9.57 17.83 12.74 17.83C15.91 17.83 18.48 15.26 18.48 12.09C18.48 8.91998 15.91 6.34998 12.74 6.34998ZM12.74 15.76C10.71 15.76 9.06 14.11 9.06 12.08C9.06 10.05 10.71 8.40998 12.74 8.40998C14.77 8.40998 16.41 10.06 16.41 12.08C16.41 14.1 14.76 15.76 12.74 15.76Z" fill="#86BE4F"/>
<path d="M17.3 23.65H8C4.14 23.65 1 20.51 1 16.65V7.34998C1 3.48998 4.14 0.349976 8 0.349976H17.3C21.16 0.349976 24.3 3.48998 24.3 7.34998V16.65C24.3 20.51 21.16 23.65 17.3 23.65ZM8 2.53998C5.35 2.53998 3.19 4.69998 3.19 7.34998V16.65C3.19 19.3 5.35 21.46 8 21.46H17.3C19.95 21.46 22.11 19.3 22.11 16.65V7.34998C22.11 4.69998 19.95 2.53998 17.3 2.53998H8Z" fill="#86BE4F"/>
</g>
<defs>
<clipPath id="clip0_431_125">
<rect width="23.3" height="23.3" fill="white" transform="translate(0.609985 0.349976)"/>
</clipPath>
</defs>
</svg>
