<svg width="47" height="33" viewBox="0 0 47 33" fill="none" xmlns="http://www.w3.org/2000/svg">
<path d="M33.1136 18.4696C30.55 18.4696 26.555 19.2467 23.5 20.7553C20.445 19.2238 16.45 18.4696 13.8864 18.4696C9.25045 18.4696 0 20.9381 0 25.8981V32.1838H47V25.8981C47 20.9381 37.7495 18.4696 33.1136 18.4696ZM24.5682 28.7553H3.20455V25.8981C3.20455 24.6638 8.67364 21.8981 13.8864 21.8981C19.0991 21.8981 24.5682 24.6638 24.5682 25.8981V28.7553ZM43.7955 28.7553H27.7727V25.8981C27.7727 24.8467 27.3455 23.9324 26.6618 23.1096C28.5418 22.4238 30.8491 21.8981 33.1136 21.8981C38.3264 21.8981 43.7955 24.6638 43.7955 25.8981V28.7553ZM13.8864 16.1838C18.0095 16.1838 21.3636 12.5953 21.3636 8.18384C21.3636 3.77241 18.0095 0.183838 13.8864 0.183838C9.76318 0.183838 6.40909 3.77241 6.40909 8.18384C6.40909 12.5953 9.76318 16.1838 13.8864 16.1838ZM13.8864 3.61241C16.2364 3.61241 18.1591 5.66955 18.1591 8.18384C18.1591 10.6981 16.2364 12.7553 13.8864 12.7553C11.5364 12.7553 9.61364 10.6981 9.61364 8.18384C9.61364 5.66955 11.5364 3.61241 13.8864 3.61241ZM33.1136 16.1838C37.2368 16.1838 40.5909 12.5953 40.5909 8.18384C40.5909 3.77241 37.2368 0.183838 33.1136 0.183838C28.9905 0.183838 25.6364 3.77241 25.6364 8.18384C25.6364 12.5953 28.9905 16.1838 33.1136 16.1838ZM33.1136 3.61241C35.4636 3.61241 37.3864 5.66955 37.3864 8.18384C37.3864 10.6981 35.4636 12.7553 33.1136 12.7553C30.7636 12.7553 28.8409 10.6981 28.8409 8.18384C28.8409 5.66955 30.7636 3.61241 33.1136 3.61241Z" fill="#86BE4F"/>
</svg>
