<svg width="107" height="17" viewBox="0 0 107 17" fill="none" xmlns="http://www.w3.org/2000/svg">
<g clip-path="url(#clip0_475_2104)">
<path d="M4.04977 4.80268C3.97542 4.49971 3.99303 4.17937 4.03412 4.01342C4.13781 3.53485 4.46844 3.00031 5.42904 3.00031C6.32116 3.00031 6.84548 3.54643 6.84548 4.36463V5.29476H10.6468V4.2392C10.6448 0.970244 7.65739 0.449219 5.50338 0.449219C2.79571 0.449219 0.584966 1.33496 0.17999 3.78957C0.0684743 4.46304 0.0508667 5.05547 0.211292 5.81578C0.870602 8.8879 6.28594 9.7775 7.07438 11.7207C7.22111 12.0816 7.17807 12.5467 7.10372 12.8303C6.97851 13.3359 6.63418 13.8454 5.6149 13.8454C4.66212 13.8454 4.09281 13.2992 4.09281 12.4772L4.08694 11.0318H0V12.18C0 15.5397 2.67441 16.5508 5.5386 16.5508C8.40278 16.5508 10.5529 15.6246 10.9207 13.1101C11.1046 11.8134 10.9657 10.9701 10.905 10.6497C10.2614 7.49657 4.48409 6.56065 4.04977 4.80268ZM53.5998 4.83934C53.5313 4.54216 53.5508 4.22762 53.5861 4.06166C53.6956 3.58116 54.0223 3.05628 54.9673 3.05628C55.8477 3.05628 56.3622 3.5966 56.3622 4.40901V5.32756H60.1185V4.27972C60.1185 1.04164 57.1761 0.532197 55.0436 0.532197C52.3594 0.532197 50.1682 1.40443 49.7671 3.84167C49.6615 4.5055 49.6341 5.09406 49.8043 5.84473C50.4578 8.88211 55.8183 9.764 56.597 11.686C56.7339 12.0507 56.6948 12.5139 56.6244 12.7879C56.507 13.2877 56.1666 13.7913 55.1551 13.7913C54.2062 13.7913 53.6369 13.2529 53.6369 12.4425V11.0009H49.593V12.1472C49.593 15.4683 52.2303 16.4717 55.0729 16.4717C57.9156 16.4717 60.0422 15.5551 60.4022 13.0677C60.5743 11.7825 60.4452 10.9469 60.3748 10.6304C59.7448 7.51394 54.0302 6.57802 53.5978 4.83741L53.5998 4.83934ZM88.1969 13.0272L84.6088 0.92779H78.9548V15.8002H82.6955L82.4783 3.31293L86.3324 15.8002H91.7556V0.92779H87.9915L88.1989 13.0272H88.1969ZM16.3125 0.92779L13.4894 15.9565H17.6057L19.7323 2.0451L21.8081 15.9565H25.895L23.0837 0.92779H16.3106H16.3125ZM39.3258 0.92779L37.4026 12.6759L35.4814 0.92779H29.2659L28.9373 15.9565H32.7444L32.8481 2.0451L35.4677 15.9565H39.3317L41.9532 2.0451L42.0569 15.9565H45.8739L45.5335 0.92779H39.3258ZM74.7309 0.92779H70.8768V12.0449C70.8827 12.2379 70.8768 12.456 70.8435 12.6161C70.7633 12.9886 70.4425 13.7084 69.3801 13.7084C68.3178 13.7084 68.0009 12.9905 67.9265 12.6161C67.8874 12.456 67.8835 12.2379 67.8874 12.0449V0.92779H64.0352V11.6995C64.0313 11.9774 64.0528 12.5447 64.0685 12.6933C64.3346 15.5011 66.5766 16.4119 69.3782 16.4119C72.1798 16.4119 74.4257 15.5011 74.6977 12.6933C74.7192 12.5447 74.7466 11.9774 74.7309 11.6995V0.92779ZM101.187 7.51973V9.71189H102.749V11.8867C102.753 12.0816 102.743 12.29 102.71 12.4579C102.647 12.8631 102.258 13.554 101.148 13.554C100.039 13.554 99.6634 12.8631 99.5969 12.4579C99.5695 12.29 99.5578 12.0797 99.5578 11.8867V5.0188C99.5578 4.77566 99.5754 4.50936 99.6262 4.30867C99.7025 3.94202 100.031 3.2203 101.14 3.2203C102.307 3.2203 102.596 3.98061 102.663 4.30867C102.706 4.5248 102.71 4.88758 102.71 4.88758V5.72122H106.546V5.22914C106.546 5.22914 106.564 4.71391 106.517 4.23534C106.229 1.41601 103.874 0.524478 101.174 0.524478C98.4739 0.524478 96.1614 1.42373 95.8249 4.23534C95.7936 4.49199 95.7486 4.95512 95.7486 5.22914V11.5471C95.7486 11.823 95.7584 12.0353 95.8093 12.5389C96.0597 15.2811 98.468 16.2517 101.162 16.2517C103.856 16.2517 106.264 15.2791 106.521 12.5389C106.566 12.0353 106.571 11.823 106.577 11.5471V7.51973H101.187Z" fill="white"/>
</g>
<defs>
<clipPath id="clip0_475_2104">
<rect width="106.577" height="16.1016" fill="white" transform="translate(0.142578 0.449219)"/>
</clipPath>
</defs>
</svg>
