<svg width="24" height="25" viewBox="0 0 24 25" fill="none" xmlns="http://www.w3.org/2000/svg">
<path d="M21.6347 8.21789C20.5175 5.58084 18.4184 3.48175 15.7814 2.36461C14.426 1.7938 12.9701 1.49976 11.4994 1.49976C10.0287 1.49976 8.57277 1.7938 7.21734 2.36461C4.5803 3.48175 2.4812 5.58084 1.36406 8.21789C0.793253 9.57332 0.499207 11.0292 0.499207 12.4999C0.499207 13.9706 0.793253 15.4265 1.36406 16.782C2.4812 19.419 4.5803 21.5181 7.21734 22.6352C8.57277 23.206 10.0287 23.5001 11.4994 23.5001C12.9701 23.5001 14.426 23.206 15.7814 22.6352C18.4184 21.5181 20.5175 19.419 21.6347 16.782C22.2055 15.4265 22.4995 13.9706 22.4995 12.4999C22.4995 11.0292 22.2055 9.57332 21.6347 8.21789ZM11.4994 21.4999C6.53671 21.4999 2.49937 17.4626 2.49937 12.4999C2.49937 7.53726 6.53671 3.49992 11.4994 3.49992C16.462 3.49992 20.4994 7.53726 20.4994 12.4999C20.4994 17.4626 16.462 21.4999 11.4994 21.4999Z" fill="#86BE4F"/>
<path d="M11.4989 12.0857V6.50009C11.4989 6.23491 11.3936 5.9806 11.206 5.79309C11.0185 5.60558 10.7642 5.50024 10.4991 5.50024C10.2339 5.50024 9.97956 5.60558 9.79205 5.79309C9.60455 5.9806 9.49921 6.23491 9.49921 6.50009V12.5001C9.49911 12.6314 9.52494 12.7614 9.57522 12.8827C9.62549 13.004 9.69922 13.1142 9.79218 13.207L12.7922 16.207C12.8849 16.3003 12.9952 16.3744 13.1166 16.4251C13.2381 16.4757 13.3683 16.5019 13.4999 16.5021C13.6315 16.5023 13.7618 16.4765 13.8834 16.4263C14.0051 16.376 14.1155 16.3022 14.2086 16.2091C14.3016 16.1161 14.3753 16.0056 14.4256 15.8839C14.4758 15.7623 14.5015 15.632 14.5013 15.5004C14.5011 15.3688 14.4748 15.2386 14.4241 15.1171C14.3735 14.9957 14.2993 14.8855 14.2059 14.7927L11.4989 12.0857Z" fill="#86BE4F"/>
</svg>
