<svg width="25" height="25" viewBox="0 0 25 25" fill="none" xmlns="http://www.w3.org/2000/svg">
<path d="M19.8664 2.34373H18.9712V1.4375C18.9712 0.919719 18.5516 0.5 18.0341 0.5C17.5165 0.5 17.097 0.919719 17.097 1.4375V2.34373H7.90295V1.4375C7.90295 0.919719 7.48342 0.5 6.96587 0.5C6.44832 0.5 6.02879 0.919719 6.02879 1.4375V2.34373H5.13364C2.57864 2.34373 0.5 4.4233 0.5 6.97939V19.8643C0.5 22.4204 2.57864 24.5 5.13364 24.5H19.8664C22.4214 24.5 24.5 22.4204 24.5 19.8643V6.97939C24.5 4.4233 22.4214 2.34373 19.8664 2.34373ZM5.13364 4.21873H6.02879V6.04686C6.02879 6.56464 6.44832 6.98436 6.96587 6.98436C7.48342 6.98436 7.90295 6.56464 7.90295 6.04686V4.21873H17.097V6.04686C17.097 6.56464 17.5166 6.98436 18.0341 6.98436C18.5517 6.98436 18.9712 6.56464 18.9712 6.04686V4.21873H19.8664C21.3879 4.21873 22.6258 5.45717 22.6258 6.97939V7.87498H2.37417V6.97939C2.37417 5.45717 3.61205 4.21873 5.13364 4.21873ZM19.8664 22.625H5.13364C3.61205 22.625 2.37417 21.3866 2.37417 19.8643V9.74999H22.6258V19.8643C22.6258 21.3866 21.3879 22.625 19.8664 22.625ZM8.82443 13.4375C8.82443 13.9553 8.4049 14.375 7.88735 14.375H6.04444C5.52689 14.375 5.10735 13.9553 5.10735 13.4375C5.10735 12.9197 5.52689 12.5 6.04444 12.5H7.88735C8.40485 12.5 8.82443 12.9197 8.82443 13.4375ZM19.8927 13.4375C19.8927 13.9553 19.4732 14.375 18.9556 14.375H17.1127C16.5951 14.375 16.1756 13.9553 16.1756 13.4375C16.1756 12.9197 16.5951 12.5 17.1127 12.5H18.9556C19.4731 12.5 19.8927 12.9197 19.8927 13.4375ZM14.3532 13.4375C14.3532 13.9553 13.9337 14.375 13.4161 14.375H11.5732C11.0557 14.375 10.6361 13.9553 10.6361 13.4375C10.6361 12.9197 11.0557 12.5 11.5732 12.5H13.4161C13.9336 12.5 14.3532 12.9197 14.3532 13.4375ZM8.82443 18.9688C8.82443 19.4865 8.4049 19.9063 7.88735 19.9063H6.04444C5.52689 19.9063 5.10735 19.4865 5.10735 18.9688C5.10735 18.451 5.52689 18.0312 6.04444 18.0312H7.88735C8.40485 18.0312 8.82443 18.451 8.82443 18.9688ZM19.8927 18.9688C19.8927 19.4865 19.4732 19.9063 18.9556 19.9063H17.1127C16.5951 19.9063 16.1756 19.4865 16.1756 18.9688C16.1756 18.451 16.5951 18.0312 17.1127 18.0312H18.9556C19.4731 18.0312 19.8927 18.451 19.8927 18.9688ZM14.3532 18.9688C14.3532 19.4865 13.9337 19.9063 13.4161 19.9063H11.5732C11.0557 19.9063 10.6361 19.4865 10.6361 18.9688C10.6361 18.451 11.0557 18.0312 11.5732 18.0312H13.4161C13.9336 18.0312 14.3532 18.451 14.3532 18.9688Z" fill="#86BE4F"/>
</svg>
