<svg width="32" height="33" viewBox="0 0 32 33" fill="none" xmlns="http://www.w3.org/2000/svg">
<path d="M22.468 3.30542H9.45551C5.86222 3.30542 2.94928 6.29905 2.94928 9.99189V23.3648C2.94928 27.0577 5.86222 30.0513 9.45551 30.0513H22.468C26.0612 30.0513 28.9742 27.0577 28.9742 23.3648V9.99189C28.9742 6.29905 26.0612 3.30542 22.468 3.30542Z" stroke="white" stroke-width="2" stroke-linecap="round" stroke-linejoin="round"/>
<path d="M21.1667 15.8358C21.3273 16.9487 21.1423 18.0854 20.6381 19.0841C20.1339 20.0828 19.3361 20.8926 18.3581 21.3985C17.3802 21.9043 16.272 22.0804 15.1911 21.9017C14.1102 21.7229 13.1117 21.1984 12.3376 20.4029C11.5634 19.6073 11.0531 18.5811 10.8792 17.4702C10.7052 16.3594 10.8766 15.2205 11.3688 14.2155C11.861 13.2105 12.649 12.3906 13.6208 11.8724C14.5925 11.3542 15.6986 11.1641 16.7815 11.3291C17.8862 11.4974 18.9089 12.0265 19.6985 12.838C20.4882 13.6495 21.0029 14.7005 21.1667 15.8358Z" stroke="white" stroke-width="2" stroke-linecap="round" stroke-linejoin="round"/>
<path d="M23.1186 9.32324H23.1328" stroke="white" stroke-width="2" stroke-linecap="round" stroke-linejoin="round"/>
</svg>
