<svg width="63" height="29" viewBox="0 0 63 29" fill="none" xmlns="http://www.w3.org/2000/svg">
<g clip-path="url(#clip0_475_2092)">
<path d="M38.7553 5.74536H34.6484V23.3726H47.2639V19.9396H38.7553V5.74536Z" fill="white"/>
<path d="M56.2983 16.6539H59.6417V19.7356C59.0256 19.9691 57.8243 20.2025 56.6801 20.2025C52.9825 20.2025 51.7503 18.3393 51.7503 14.5584C51.7503 10.7775 52.9231 8.82811 56.6196 8.82811C58.6747 8.82811 59.8464 9.46844 60.8145 10.6902L63.368 8.3634C61.8123 6.15332 59.0839 5.48462 56.5316 5.48462C50.7821 5.48462 47.76 8.59684 47.76 14.53C47.76 20.4632 50.4884 23.6354 56.5019 23.6354C59.26 23.6354 61.9587 22.9373 63.4252 21.9195V13.3672H56.2972V16.6539H56.2983Z" fill="white"/>
<path d="M14.7509 28.2671C7.15759 28.2671 1 22.1594 1 14.6325C1 7.10554 7.15759 1 14.7509 1C22.3442 1 28.5018 7.10118 28.5018 14.6325C28.5018 22.1638 22.3453 28.2671 14.7509 28.2671ZM14.2052 8.64911V20.6006H18.036V19.5348H15.2977V8.64911H14.2052ZM10.3612 11.9119C11.2733 11.9119 12.0126 11.1788 12.0126 10.2789C12.0126 9.3789 11.2733 8.64257 10.3612 8.64257C9.44922 8.64257 8.71541 9.37562 8.71541 10.2789C8.71541 11.1821 9.45472 11.9119 10.3612 11.9119ZM15.2977 3.22535C15.159 3.2199 14.8851 3.21663 14.752 3.21663C8.40957 3.21663 3.24652 8.33712 3.24652 14.6292C3.24652 17.676 4.4391 20.5417 6.61081 22.695C8.79022 24.8527 11.6814 26.0374 14.752 26.0374C17.8225 26.0374 20.7148 24.8527 22.8932 22.695C25.0649 20.5417 26.2585 17.676 26.2585 14.6292V14.1089L25.7987 14.111H18.0437V15.1714H25.1661V15.3252C24.7997 20.7064 20.2693 24.9738 14.7531 24.9738C11.9686 24.9738 9.3502 23.8982 7.37762 21.9445C5.40504 19.9919 4.32028 17.3934 4.32028 14.6303C4.32028 11.8671 5.40614 9.26872 7.37762 7.31499C9.3502 5.35908 11.9675 4.28349 14.7531 4.28349C14.8796 4.28349 15.1733 4.28676 15.2988 4.29003V3.22645L15.2977 3.22535Z" fill="white"/>
</g>
<defs>
<clipPath id="clip0_475_2092">
<rect width="62.4274" height="27.2671" fill="white" transform="translate(0.280151 0.866455)"/>
</clipPath>
</defs>
</svg>
