<svg width="138" height="31" viewBox="0 0 138 31" fill="none" xmlns="http://www.w3.org/2000/svg">
<path d="M1.88488 0.723272C0.958013 1.16231 0.616536 1.79648 0.518971 3.21117C0.372624 4.77221 1.00679 6.13812 4.76304 12.6262C7.20216 16.8215 9.20224 20.5289 9.20224 20.8704C9.20224 21.407 8.22659 21.5534 5.00695 21.5534H0.860448L1.0068 23.1144L1.15314 24.7242L7.1046 24.8706C11.5926 24.9681 13.4951 24.8218 14.861 24.2364C16.5684 23.5534 16.6172 23.4071 16.422 21.6509C16.2269 20.5289 14.422 16.7727 11.8853 12.3823C9.49494 8.18698 7.78755 4.62586 7.9339 4.23561C8.12903 3.699 9.00711 3.50387 11.1535 3.50387H14.1293L13.9829 1.89405L13.8366 0.333012L8.4705 0.186665C4.86061 0.137882 2.71418 0.284229 1.88488 0.723272Z" fill="white"/>
<path d="M71.8389 1.26005C71.7413 1.60153 71.6925 6.96759 71.7413 13.2605L71.8877 24.7244L74.2292 24.8707L76.522 25.0171V17.8949V10.7726L78.6196 10.919L80.6685 11.0653L80.8148 18.0412L80.9612 25.0171L83.254 24.8707L85.5467 24.7244L85.6931 17.2607C85.7419 12.6751 85.5955 9.4555 85.3028 8.87011C84.8638 7.99203 84.2784 7.89446 80.6685 7.89446H76.522V4.28456V0.674662L74.278 0.723446C73.0584 0.723446 71.9364 0.967358 71.8389 1.26005Z" fill="white"/>
<path d="M17.2514 16.3827C22.276 24.6757 22.3736 24.9196 22.3736 27.8465V30.8223H24.8127H27.2518V19.3584V7.89453H24.8127H22.4223L22.276 13.846L22.1297 19.8462L18.7149 13.8948C15.4465 8.18723 15.2025 7.89453 13.7391 7.89453H12.178L17.2514 16.3827Z" fill="white"/>
<path d="M30.1787 16.4314V24.9683H32.6178H35.057V17.8949V10.8214H37.0082H38.9108L39.0571 17.7485L39.2035 24.7244H41.6426H44.0817L44.0329 17.7485V10.8214H46.1306H48.2282V17.9436V25.0171L50.4722 24.8707L52.7162 24.7244L52.6674 16.7241C52.6186 12.3337 52.4723 8.52864 52.3259 8.28472C52.1796 8.08959 47.155 7.89446 41.106 7.89446H30.1787V16.4314Z" fill="white"/>
<path d="M55.5456 19.3584V30.8223H57.7408H59.936V27.8953V24.9684H63.7898C69.2535 24.9684 69.2047 25.0172 69.2047 16.6266C69.2047 12.8216 68.9608 9.358 68.7168 8.8214C68.229 7.9921 67.6436 7.89453 61.8873 7.89453H55.5456V19.3584ZM64.3264 16.6754V22.5293H62.2288H60.1799L60.1311 16.6754V10.8215H62.2288H64.3264V16.6754Z" fill="white"/>
<path d="M92.6689 8.57757L91.5469 9.21174L93.0592 10.9191C93.8885 11.8948 94.5714 13.2119 94.5714 13.8461C94.5714 15.3095 96.5227 17.2608 97.4496 16.7242C97.7911 16.4803 98.035 16.1388 98.035 15.8949C97.9862 15.651 99.3033 15.1632 100.962 14.8217C102.669 14.529 104.133 14.1388 104.279 13.9924C104.865 13.407 102.669 10.4313 100.767 9.21174C98.5228 7.74827 94.7178 7.45557 92.6689 8.57757Z" fill="white"/>
<path d="M107.255 16.4314V25.0171L109.743 24.8707L112.231 24.7244L112.182 17.7485L112.084 10.8214H114.328H116.524V17.8949V24.9683H118.719H120.914L120.816 16.5289L120.67 8.13838L113.987 7.99203L107.255 7.84568V16.4314Z" fill="white"/>
<path d="M122.524 8.23601C132.768 25.1635 132.622 24.8708 132.622 27.9441V30.8223H135.061H137.5V19.3584V7.89453H134.963H132.378L132.524 13.846C132.622 17.1632 132.524 19.6511 132.28 19.456C132.085 19.2121 130.427 16.5778 128.67 13.6021C125.743 8.57749 125.353 8.13844 123.89 7.9921C123.012 7.89453 122.377 7.9921 122.524 8.23601Z" fill="white"/>
<path d="M88.0347 14.0898C86.6688 17.6509 89.3518 22.9682 93.2544 24.4317C98.1326 26.2854 104.084 22.6267 104.718 17.407C104.913 15.4557 104.865 15.2118 104.084 15.5045C103.45 15.7484 103.401 15.9435 103.889 16.2362C104.865 16.8216 103.011 18.6266 101.45 18.6266C100.572 18.6266 100.377 18.7729 100.816 19.0656C101.645 19.6022 100.474 20.09 98.4253 20.09C96.7667 20.09 96.6204 19.4559 98.0351 18.4314L99.1083 17.6997L98.0351 17.7973C97.4985 17.846 97.0106 18.1387 97.0106 18.4314C97.0106 19.4071 94.6691 20.6266 93.352 20.2852C91.8397 19.8949 91.7421 19.1144 93.2544 19.1144C94.0349 19.1144 93.7422 18.8217 92.1324 18.09C90.864 17.5046 90.1811 16.968 90.5226 16.7728C90.9128 16.5289 90.6201 15.8947 89.6933 14.8703C88.6201 13.6508 88.2298 13.5044 88.0347 14.0898Z" fill="white"/>
<path d="M99.4497 17.1631C99.4497 17.407 99.6936 17.6509 99.9863 17.6509C100.23 17.6509 100.328 17.407 100.181 17.1631C100.035 16.8704 99.7912 16.6752 99.6448 16.6752C99.5473 16.6752 99.4497 16.8704 99.4497 17.1631Z" fill="white"/>
</svg>
