<svg width="75" height="35" viewBox="0 0 75 35" fill="none" xmlns="http://www.w3.org/2000/svg">
<g clip-path="url(#clip0_475_2150)">
<path d="M21.1138 19.1304C21.1138 20.8155 21.1146 22.5006 21.1123 24.1858C21.1123 24.3559 21.1042 24.5284 21.0763 24.6959C20.9418 25.5093 20.5608 26.1833 19.9212 26.699C19.1467 27.3238 18.2663 27.5273 17.303 27.3006C15.9664 26.9859 14.913 25.7436 14.913 24.2222C14.913 20.8275 14.913 17.4329 14.9115 14.0382C14.9115 13.7801 14.9551 13.5314 15.0678 13.3005C15.2589 12.9084 15.5354 12.6089 15.9748 12.4995C16.0294 12.486 16.082 12.4643 16.1357 12.4467C16.0919 12.3757 16.0224 12.4103 15.9658 12.41C14.3208 12.408 12.6758 12.4082 11.0307 12.4082C11.0066 12.4082 10.9814 12.4041 10.9584 12.4094C10.9239 12.417 10.8905 12.4308 10.8565 12.4423C10.889 12.4578 10.9198 12.4816 10.9541 12.4877C11.3258 12.5561 11.5927 12.7749 11.7981 13.0826C11.9938 13.3759 12.0667 13.7 12.0661 14.0529C12.0612 17.3059 12.0618 20.5588 12.0597 23.8121C12.0597 24.1641 12.0824 24.5137 12.1422 24.8607C12.3194 25.8859 12.7818 26.7541 13.5375 27.4649C14.1099 28.0031 14.7742 28.3838 15.5095 28.6387C16.4717 28.9725 17.4624 29.1092 18.4781 29.0318C18.8289 29.0051 19.1812 28.972 19.5274 28.9098C20.345 28.7628 21.1106 28.4715 21.8085 28.0104C22.6464 27.4566 23.263 26.7192 23.6307 25.7744C23.8802 25.1326 23.9606 24.4621 23.9615 23.7798C23.9644 21.4843 23.9627 19.1884 23.9627 16.8929C23.9627 15.9308 23.9656 14.9684 23.9609 14.0063C23.9595 13.7259 24.0135 13.463 24.148 13.2187C24.3547 12.8435 24.642 12.571 25.0759 12.4886C25.0997 12.4842 25.1235 12.4786 25.1456 12.4693C25.156 12.4649 25.1706 12.4478 25.1685 12.4414C25.1653 12.4305 25.1505 12.4165 25.1395 12.4153C25.0916 12.4109 25.0431 12.4088 24.9949 12.4088C23.3548 12.4094 21.7144 12.41 20.0743 12.4109C20.0502 12.4109 20.0252 12.4074 20.002 12.4121C19.9663 12.4191 19.9314 12.4317 19.8963 12.442C19.9273 12.4564 19.9573 12.4781 19.9898 12.4845C20.2759 12.5408 20.5111 12.6828 20.7022 12.9043C20.9851 13.2322 21.1149 13.6144 21.1146 14.0465C21.1138 15.7413 21.1144 17.4361 21.1144 19.1312L21.1138 19.1304ZM60.8927 19.0045H60.8912C60.8912 20.6017 60.8886 22.1991 60.8935 23.7963C60.8944 24.0831 60.9185 24.3709 60.9455 24.6569C60.9961 25.1875 61.1555 25.6888 61.3922 26.1628C61.8738 27.1261 62.6225 27.8192 63.565 28.3067C64.5295 28.8056 65.5661 29.0186 66.641 29.0503C66.9874 29.0605 67.336 29.0294 67.6824 29.0033C68.2982 28.9573 68.8941 28.8162 69.4724 28.5986C70.2821 28.2938 71.0007 27.8476 71.585 27.1965C72.3544 26.3388 72.7572 25.3254 72.7694 24.1744C72.7892 22.3378 72.7767 20.5013 72.7776 18.6646C72.7781 17.1504 72.777 15.636 72.7781 14.1218C72.7781 13.7804 72.831 13.4504 73.0125 13.1533C73.21 12.83 73.4711 12.5892 73.8484 12.498C73.9007 12.4854 73.9498 12.4593 74 12.4393C73.9463 12.4288 73.8925 12.4091 73.8388 12.4091C72.1839 12.4082 70.5293 12.4091 68.8744 12.4103C68.8358 12.4103 68.7969 12.4112 68.7585 12.415C68.746 12.4162 68.735 12.4285 68.7231 12.4355C68.7335 12.4478 68.7417 12.466 68.755 12.4716C68.7815 12.4825 68.8105 12.4886 68.8393 12.4933C69.0777 12.5314 69.2732 12.6511 69.4442 12.8174C69.8009 13.1644 69.9426 13.5983 69.9426 14.0866C69.9435 17.4423 69.9441 20.7982 69.9409 24.1538C69.9409 24.4413 69.913 24.7281 69.8378 25.0086C69.658 25.68 69.3066 26.2411 68.7716 26.679C68.0385 27.2792 67.2024 27.5027 66.2727 27.3311C65.578 27.2029 64.9991 26.8577 64.5312 26.3241C64.0279 25.7498 63.7476 25.079 63.7462 24.3119C63.7389 20.8683 63.7418 17.4247 63.743 13.981C63.743 13.8696 63.7497 13.7546 63.7773 13.6475C63.9263 13.0715 64.2344 12.6406 64.8414 12.4907C64.8841 12.4801 64.9233 12.4558 64.9643 12.4379C64.9201 12.4279 64.876 12.4091 64.8318 12.4091C64.3576 12.4071 63.8836 12.4077 63.4093 12.4077C62.2237 12.4077 61.0385 12.4077 59.8529 12.408C59.8 12.408 59.7469 12.4129 59.6943 12.4176C59.6874 12.4182 59.6752 12.4317 59.6763 12.4367C59.6789 12.4481 59.6865 12.4643 59.6955 12.4672C59.7274 12.4778 59.7608 12.4848 59.7942 12.4907C60.0527 12.5347 60.2656 12.6643 60.4428 12.8529C60.7416 13.1715 60.8935 13.5499 60.8932 13.9922C60.8912 15.6627 60.8924 17.3332 60.8924 19.0036L60.8927 19.0045ZM58.3179 13.8124C58.3179 13.446 58.3121 13.0797 58.3211 12.7136C58.3243 12.5886 58.2785 12.5185 58.1704 12.481C58.0336 12.4332 57.898 12.3792 57.7577 12.3464C57.3383 12.2484 56.9122 12.1938 56.4824 12.1651C56.1162 12.1407 55.7505 12.1029 55.384 12.0879C54.8176 12.0648 54.2536 12.1114 53.6942 12.2006C53.0367 12.3053 52.4027 12.4895 51.8064 12.796C50.9482 13.2375 50.2851 13.8778 49.8483 14.7478C49.5924 15.2576 49.4393 15.7976 49.3827 16.3684C49.3264 16.9366 49.3749 17.4874 49.5747 18.0239C49.8921 18.8757 50.4454 19.5475 51.1335 20.118C51.6031 20.5072 52.123 20.817 52.6579 21.1032C53.6576 21.6383 54.6573 22.1739 55.6561 22.7101C56.0261 22.9087 56.368 23.1436 56.6314 23.4806C56.9819 23.9291 57.1141 24.4284 56.9819 24.9913C56.7865 25.824 56.2922 26.4294 55.5527 26.8157C54.6837 27.2695 53.7549 27.4605 52.7756 27.3241C51.9865 27.2144 51.2194 27.0193 50.498 26.6705C50.0539 26.4555 49.6476 26.1857 49.3394 25.7862C49.3148 25.7539 49.2776 25.7316 49.2462 25.7046C49.2509 25.7457 49.2491 25.7891 49.2613 25.8278C49.5442 26.7251 49.8317 27.6209 50.1094 28.5199C50.1492 28.6493 50.2157 28.7086 50.3388 28.7455C50.9362 28.925 51.5502 28.994 52.1683 29.0242C52.5972 29.0453 53.028 29.0321 53.4578 29.0347C54.0439 29.0382 54.6254 28.9849 55.203 28.886C56.0241 28.7455 56.8118 28.5059 57.5378 28.0849C58.0545 27.7855 58.5114 27.4115 58.8782 26.9348C59.4823 26.1493 59.7907 25.2605 59.8003 24.2621C59.8059 23.6924 59.6772 23.1589 59.4353 22.6508C59.1062 21.9595 58.6133 21.4033 58.02 20.9317C57.5689 20.5732 57.07 20.2951 56.5649 20.0262C55.6369 19.5316 54.7078 19.0391 53.7825 18.5399C53.5571 18.4182 53.3341 18.287 53.1273 18.1366C52.7085 17.8318 52.4003 17.4388 52.2583 16.9275C52.1909 16.684 52.1985 16.4376 52.2115 16.188C52.2368 15.7067 52.3774 15.2682 52.6591 14.8792C52.9983 14.4111 53.4636 14.1286 54.007 13.9658C54.5371 13.8068 55.0811 13.7825 55.6288 13.7854C56.0334 13.7875 56.4287 13.8461 56.8132 13.9696C57.3409 14.1389 57.7998 14.416 58.1417 14.8678C58.1768 14.9144 58.2087 14.9634 58.245 15.0089C58.2552 15.0218 58.2764 15.0256 58.2927 15.0335C58.3005 15.0171 58.313 15.0012 58.3148 14.9845C58.3185 14.9458 58.3174 14.9065 58.3174 14.8675C58.3174 14.5158 58.3174 14.1641 58.3174 13.8127L58.3179 13.8124ZM5.23887 12.4082V12.4106C3.55551 12.4106 1.87186 12.4106 0.188492 12.4106C0.135343 12.4106 0.0821932 12.4129 0.029334 12.4176C0.0188783 12.4185 0.00958436 12.4355 0 12.4449C0.0101652 12.4537 0.0185879 12.4663 0.0304957 12.4707C0.0528592 12.4792 0.0769653 12.4851 0.100491 12.4892C0.52046 12.5628 0.796954 12.828 1.00374 13.1829C1.16261 13.4557 1.20966 13.7534 1.20937 14.0685C1.20618 18.3709 1.20705 22.6734 1.20705 26.9762C1.20705 27.0249 1.20647 27.0739 1.2056 27.1225C1.19746 27.5719 1.01681 27.9439 0.700239 28.2516C0.54021 28.407 0.348813 28.5076 0.129534 28.5531C0.0865497 28.5619 0.0467601 28.5856 0.00551827 28.6027C0.0467601 28.6091 0.0877115 28.6214 0.128953 28.6214C1.80273 28.6223 3.47651 28.6223 5.15058 28.622C5.18427 28.622 5.21825 28.6203 5.25194 28.6176C5.26007 28.617 5.26762 28.6088 5.27547 28.6038C5.26762 28.593 5.26211 28.5763 5.25165 28.5722C5.22958 28.5631 5.20547 28.5592 5.18166 28.5554C5.00594 28.5287 4.84649 28.4619 4.70534 28.3542C4.26911 28.0213 4.05912 27.5687 4.05796 27.0258C4.05302 24.9845 4.05651 22.943 4.0568 20.9017C4.0568 20.8821 4.05622 20.8627 4.0568 20.8431C4.06145 20.7369 4.0658 20.7325 4.17646 20.7284C4.20057 20.7275 4.22496 20.7284 4.24907 20.7284C5.41023 20.7284 6.5711 20.7284 7.73226 20.7284C7.91175 20.7284 8.08978 20.7328 8.26143 20.7964C8.75982 20.9809 9.10515 21.3007 9.18792 21.8556C9.19111 21.8762 9.20941 21.8943 9.22074 21.9134C9.23061 21.8946 9.24688 21.877 9.24949 21.8574C9.25443 21.819 9.25181 21.7794 9.25181 21.7403C9.25181 20.9199 9.25211 20.0995 9.25181 19.2791C9.25181 19.0444 9.2736 19.0588 9.03109 19.0588C7.42498 19.0588 5.81887 19.0588 4.21276 19.0588C4.05854 19.0588 4.05738 19.0579 4.05709 18.9095C4.05651 17.3516 4.05593 15.7938 4.05593 14.2357C4.05593 14.0825 4.0568 14.0814 4.20666 14.0814C5.81771 14.0814 7.42846 14.0808 9.03951 14.0828C9.15452 14.0828 9.27331 14.0902 9.38425 14.1183C9.91982 14.2544 10.3041 14.5574 10.44 15.1244C10.4516 15.1725 10.4748 15.2177 10.4928 15.264C10.503 15.2148 10.5222 15.1655 10.5222 15.1162C10.5231 14.2861 10.5219 13.4557 10.5207 12.6256C10.5207 12.4811 10.4485 12.4088 10.3041 12.4088C8.61576 12.4088 6.92746 12.4088 5.23887 12.4088V12.4082ZM44.8676 20.7131H44.8696C44.8696 18.5836 44.8696 16.4544 44.8696 14.3248C44.8696 14.2858 44.8688 14.2468 44.8696 14.2075C44.8728 14.0866 44.8752 14.0814 44.9916 14.0811C45.7802 14.0802 46.569 14.0732 47.3572 14.0831C47.9331 14.0905 48.4684 14.585 48.5497 15.157C48.5579 15.2148 48.5831 15.2702 48.6003 15.3268C48.6258 15.2711 48.6584 15.2171 48.6761 15.159C48.9337 14.3099 49.1893 13.4604 49.4452 12.6109C49.5061 12.4088 49.5056 12.4082 49.3005 12.4082C45.6526 12.4082 42.0048 12.4082 38.3569 12.4082C38.178 12.4082 38.1768 12.4082 38.1254 12.5769C37.8585 13.4537 37.5922 14.3307 37.3262 15.2074C37.3177 15.2353 37.3087 15.2635 37.3044 15.2922C37.3026 15.3034 37.3131 15.3166 37.318 15.3289C37.3305 15.3236 37.3471 15.3218 37.3543 15.3124C37.3726 15.2899 37.3866 15.264 37.4023 15.2394C37.5632 14.9877 37.747 14.7569 37.9825 14.5709C38.379 14.2582 38.8149 14.072 39.3305 14.0784C40.1721 14.089 41.0141 14.0811 41.8558 14.0814C42.0155 14.0814 42.0155 14.0822 42.0167 14.2403C42.0167 14.2453 42.0167 14.25 42.0167 14.255C42.0167 18.5138 42.0167 22.7726 42.0176 27.0313C42.0176 27.3945 41.9162 27.7256 41.7033 28.0172C41.4957 28.3017 41.2325 28.5059 40.873 28.5563C40.848 28.5598 40.8253 28.5801 40.8015 28.5927C40.8253 28.6018 40.8483 28.6147 40.873 28.6194C40.8962 28.6241 40.9212 28.6206 40.9453 28.6206C42.6095 28.6206 44.274 28.6206 45.9381 28.6206C45.9768 28.6206 46.0157 28.6206 46.054 28.6176C46.0654 28.6167 46.0758 28.6041 46.0868 28.5971C46.0784 28.5865 46.0717 28.5692 46.0616 28.5669C46.0099 28.5548 45.9564 28.5507 45.9053 28.537C45.5327 28.4363 45.2713 28.1938 45.0802 27.8667C44.9269 27.6042 44.8644 27.3197 44.865 27.0128C44.8688 24.9126 44.867 22.8127 44.867 20.7125L44.8676 20.7131ZM28.5193 12.4103C27.7064 12.4103 26.8937 12.4103 26.0808 12.4103C26.0372 12.4103 25.9931 12.4068 25.9504 12.4129C25.9254 12.4165 25.9028 12.4355 25.8792 12.4478C25.8993 12.4575 25.9187 12.4693 25.9399 12.4766C25.9626 12.4845 25.9867 12.4895 26.0105 12.4936C26.3007 12.5461 26.5295 12.7025 26.7131 12.9271C26.9753 13.2477 27.0991 13.6156 27.0991 14.0347C27.097 19.4609 27.0988 24.8874 27.0991 30.3136C27.0991 30.4163 27.1023 30.5195 27.0906 30.621C27.0163 31.2687 26.8696 31.8985 26.6216 32.5021C26.2751 33.3451 25.7825 34.0834 25.0881 34.6759C24.9885 34.761 24.8842 34.8405 24.7843 34.9253C24.7695 34.9379 24.7674 34.966 24.7593 34.9872C24.7773 34.9918 24.7962 35.0024 24.8133 35.0001C24.861 34.9933 24.9083 34.9819 24.9554 34.9716C25.5577 34.8402 26.1392 34.6469 26.6968 34.3808C27.4479 34.0227 28.1237 33.5607 28.6819 32.933C29.1208 32.4396 29.4507 31.8823 29.6624 31.2543C29.8684 30.643 29.952 30.0138 29.9517 29.3691C29.9491 24.2653 29.9503 19.1611 29.9477 14.0573C29.9477 13.747 30.0052 13.4563 30.1571 13.1864C30.3516 12.8412 30.6218 12.5907 31.0156 12.4965C31.067 12.4842 31.1152 12.459 31.1649 12.4399C31.1103 12.43 31.0557 12.4115 31.0011 12.4115C30.1736 12.4097 29.3465 12.4103 28.519 12.4103H28.5193ZM31.0699 3.03567H31.0679C31.0679 3.36302 31.0667 3.69007 31.069 4.01742C31.0693 4.07667 31.0838 4.13593 31.092 4.19488C31.1167 4.14355 31.1448 4.09339 31.166 4.0406C31.4434 3.34864 31.8178 2.72269 32.3812 2.22609C33.1851 1.51772 34.1186 1.22527 35.1752 1.37223C36.0355 1.4919 36.7502 1.89317 37.2922 2.58307C37.8931 3.34776 38.0859 4.21923 37.9009 5.17224C37.7691 5.8507 37.4287 6.41417 36.921 6.87674C36.3773 7.37217 35.7343 7.64144 35.0111 7.7089C34.4842 7.75789 33.969 7.68075 33.4756 7.4807C33.0666 7.31468 32.6972 7.08207 32.3954 6.75795C31.8886 6.21383 31.4013 5.65094 30.8916 5.10976C30.2053 4.38114 29.3444 4.0271 28.3598 3.96726C27.9913 3.94468 27.6265 3.99044 27.2678 4.08049C25.4854 4.52751 24.2455 6.21031 24.4793 8.07204C24.5996 9.02915 25.0381 9.81292 25.7665 10.4224C26.6053 11.1241 27.5794 11.4013 28.6622 11.2719C29.5715 11.1631 30.3374 10.7621 30.9726 10.0992C31.0519 10.0165 31.0873 9.92995 31.0859 9.81292C31.0803 9.29051 31.083 8.7678 31.0827 8.2451C31.0827 8.21078 31.0833 8.17676 31.0812 8.14273C31.0804 8.12894 31.0731 8.11574 31.0687 8.10225C31.0539 8.11222 31.0359 8.11985 31.0246 8.13305C31.0092 8.15153 30.9999 8.175 30.9865 8.19524C30.8521 8.39763 30.7307 8.61088 30.5799 8.80007C30.0833 9.42426 29.4589 9.84284 28.6575 9.94667C28.0247 10.0288 27.4177 9.94022 26.8792 9.57562C26.1 9.04793 25.7395 8.29937 25.836 7.35662C25.9057 6.67464 26.2513 6.13698 26.8063 5.74246C27.2573 5.42186 27.7624 5.28781 28.3128 5.31362C28.9352 5.34266 29.4667 5.57615 29.9041 6.02347C30.0432 6.16573 30.1745 6.3162 30.3081 6.46404C30.5625 6.74534 30.8181 7.02517 31.069 7.3094C31.4016 7.68573 31.7495 8.04417 32.1773 8.31315C33.2418 8.98252 34.3936 9.2119 35.6239 8.97166C36.637 8.77396 37.4981 8.28558 38.1919 7.5068C38.8512 6.76704 39.2297 5.89998 39.3191 4.91177C39.3737 4.3084 39.3061 3.71266 39.1123 3.13569C38.8332 2.305 38.3543 1.61334 37.6817 1.05984C36.9036 0.419805 36.007 0.0780822 35.0094 0.010031C34.3791 -0.0330876 33.7663 0.0631226 33.175 0.292502C32.3664 0.606359 31.6955 1.11058 31.1434 1.78112C31.0914 1.84448 31.0682 1.91136 31.069 1.99466C31.0725 2.34137 31.0705 2.68808 31.0705 3.03479L31.0699 3.03567ZM34.6605 28.6211C35.4831 28.6211 36.3053 28.6211 37.1278 28.6211C37.1664 28.6211 37.2056 28.6235 37.2437 28.6191C37.2637 28.6167 37.2823 28.6021 37.3015 28.5927C37.2829 28.5807 37.2652 28.5607 37.2454 28.5584C37.043 28.5337 36.8655 28.4537 36.7043 28.329C36.4711 28.1486 36.3114 27.9151 36.2019 27.6429C36.1165 27.4308 36.0967 27.21 36.097 26.9832C36.0991 24.4876 36.0982 21.9923 36.0982 19.4967C36.0982 17.6752 36.0973 15.8536 36.0997 14.0321C36.0997 13.8819 36.0997 13.7253 36.1386 13.5824C36.2913 13.0222 36.6102 12.6162 37.2042 12.4892C37.2277 12.4842 37.2518 12.4795 37.2742 12.4707C37.2858 12.4663 37.2945 12.4537 37.3047 12.4449C37.2948 12.4355 37.2858 12.4185 37.2753 12.4176C37.2274 12.4129 37.1789 12.4106 37.1307 12.4106C36.1438 12.4103 35.1569 12.4106 34.17 12.4106C33.5168 12.4106 32.8639 12.4106 32.2107 12.4106C32.1672 12.4106 32.1236 12.4103 32.0803 12.415C32.0641 12.4168 32.0492 12.4326 32.0338 12.4423C32.0466 12.4525 32.058 12.4675 32.0728 12.4725C32.1001 12.4819 32.1288 12.4869 32.1576 12.4921C32.4042 12.5353 32.6115 12.6538 32.7869 12.8309C33.0968 13.1433 33.2499 13.5232 33.2499 13.9632C33.2508 18.3193 33.2502 22.6752 33.2511 27.0313C33.2511 27.3525 33.1709 27.6499 33.0001 27.9195C32.7887 28.253 32.5116 28.4971 32.1065 28.5569C32.0815 28.5607 32.0588 28.5807 32.035 28.5933C32.0588 28.6024 32.0818 28.6164 32.1065 28.62C32.1396 28.6247 32.1741 28.6214 32.2078 28.6214C33.0254 28.6214 33.843 28.6214 34.6605 28.6214V28.6211Z" fill="white"/>
<path d="M21.1138 19.1305C21.1138 17.4357 21.1132 15.7409 21.1141 14.0457C21.1141 13.6137 20.9845 13.2315 20.7017 12.9035C20.5105 12.6821 20.2756 12.5401 19.9892 12.4838C19.9564 12.4773 19.9268 12.4559 19.8957 12.4413C19.9308 12.431 19.9657 12.4184 20.0014 12.4113C20.0246 12.4066 20.0496 12.4102 20.0737 12.4102C21.7138 12.4093 23.3542 12.4087 24.9943 12.4081C25.0425 12.4081 25.091 12.4099 25.1389 12.4146C25.15 12.4157 25.1648 12.4295 25.168 12.4407C25.17 12.4474 25.1555 12.4644 25.145 12.4685C25.1229 12.4779 25.0988 12.4832 25.0753 12.4879C24.6414 12.57 24.3542 12.8428 24.1474 13.218C24.0129 13.4623 23.9589 13.7251 23.9603 14.0055C23.965 14.9677 23.9621 15.93 23.9621 16.8922C23.9621 19.1877 23.9638 21.4836 23.9609 23.7791C23.96 24.4614 23.8796 25.1319 23.6301 25.7737C23.2624 26.7188 22.6458 27.4562 21.8079 28.0097C21.11 28.4708 20.3444 28.7621 19.5268 28.909C19.1809 28.9712 18.8283 29.0044 18.4775 29.0311C17.4618 29.1088 16.4712 28.9718 15.509 28.638C14.7736 28.3828 14.1094 28.0024 13.5369 27.4641C12.7812 26.7537 12.3188 25.8855 12.1417 24.86C12.0818 24.513 12.0589 24.1634 12.0592 23.8114C12.0612 20.5584 12.0606 17.3054 12.0656 14.0522C12.0661 13.699 11.9932 13.3749 11.7975 13.0819C11.5921 12.7745 11.3252 12.5556 10.9535 12.487C10.9195 12.4809 10.8884 12.4571 10.8559 12.4415C10.8899 12.4304 10.923 12.4163 10.9578 12.4087C10.9811 12.4037 11.0061 12.4075 11.0302 12.4075C12.6752 12.4075 14.3202 12.4072 15.9652 12.4093C16.0219 12.4093 16.0913 12.3747 16.1351 12.4459C16.0817 12.4638 16.0288 12.4853 15.9742 12.4987C15.5348 12.6082 15.2583 12.9076 15.0672 13.2998C14.9548 13.5307 14.911 13.7791 14.911 14.0375C14.9124 17.4322 14.9124 20.8268 14.9124 24.2214C14.9124 25.7432 15.9658 26.9854 17.3024 27.2999C18.2658 27.5266 19.1458 27.323 19.9207 26.6983C20.5599 26.1829 20.941 25.5085 21.0757 24.6952C21.1033 24.5277 21.1115 24.3552 21.1117 24.1851C21.1144 22.4999 21.1132 20.8148 21.1132 19.1296L21.1138 19.1305Z" fill="white"/>
<path d="M60.8926 19.0046C60.8926 17.3341 60.8915 15.6636 60.8935 13.9931C60.8941 13.5508 60.7422 13.1721 60.4431 12.8539C60.2659 12.6653 60.053 12.5353 59.7945 12.4916C59.7611 12.486 59.728 12.4787 59.6958 12.4682C59.6868 12.4652 59.6792 12.4491 59.6766 12.4376C59.6754 12.4327 59.6876 12.4192 59.6946 12.4186C59.7475 12.4139 59.8003 12.4089 59.8532 12.4089C61.0387 12.4083 62.224 12.4086 63.4096 12.4086C63.8838 12.4086 64.3578 12.4077 64.8321 12.4101C64.8763 12.4101 64.9204 12.4288 64.9645 12.4388C64.9236 12.4567 64.8844 12.4811 64.8417 12.4916C64.235 12.6415 63.9265 13.0721 63.7775 13.6485C63.7499 13.7556 63.7433 13.8705 63.7433 13.982C63.7421 17.4256 63.7395 20.8692 63.7465 24.3129C63.7482 25.0799 64.0282 25.7507 64.5315 26.3251C64.9994 26.8586 65.5782 27.2039 66.273 27.3321C67.2026 27.5036 68.0388 27.2801 68.7719 26.68C69.3068 26.2421 69.6583 25.6809 69.8381 25.0095C69.9133 24.7291 69.9409 24.4422 69.9412 24.1548C69.9443 20.7991 69.9435 17.4432 69.9429 14.0876C69.9429 13.5992 69.8012 13.1651 69.4445 12.8184C69.2734 12.6521 69.078 12.5324 68.8395 12.4943C68.8111 12.4896 68.782 12.4837 68.7553 12.4726C68.742 12.467 68.7338 12.4491 68.7234 12.4365C68.7353 12.4294 68.7463 12.4171 68.7588 12.4159C68.7971 12.4121 68.836 12.4115 68.8747 12.4112C70.5296 12.4104 72.1842 12.4092 73.8391 12.4101C73.8928 12.4101 73.9465 12.4297 74.0003 12.4403C73.9497 12.4602 73.9007 12.4863 73.8487 12.499C73.4717 12.5902 73.2103 12.8307 73.0128 13.1542C72.8313 13.4514 72.7787 13.7814 72.7784 14.1228C72.7775 15.6369 72.7784 17.1514 72.7778 18.6655C72.7773 20.502 72.7895 22.3388 72.7697 24.1753C72.7575 25.3263 72.3544 26.3397 71.5853 27.1974C71.0012 27.8489 70.2827 28.2947 69.4727 28.5995C68.8944 28.8172 68.2985 28.9582 67.6827 29.0043C67.3362 29.0301 66.9877 29.0612 66.6412 29.0512C65.5663 29.0195 64.5301 28.8066 63.5652 28.3076C62.6228 27.8201 61.8743 27.127 61.3925 26.1637C61.1555 25.6897 60.9963 25.1884 60.9458 24.6578C60.9185 24.3718 60.8947 24.0844 60.8938 23.7972C60.8889 22.2001 60.8915 20.6026 60.8915 19.0055H60.8929L60.8926 19.0046Z" fill="white"/>
<path d="M58.3182 13.8122C58.3182 14.1639 58.3182 14.5156 58.3182 14.867C58.3182 14.906 58.3194 14.9453 58.3156 14.984C58.3139 15.001 58.3011 15.0169 58.2935 15.033C58.2773 15.0251 58.2561 15.0213 58.2459 15.0084C58.2093 14.9629 58.1777 14.9136 58.1425 14.8673C57.8007 14.4156 57.3418 14.1384 56.8141 13.9691C56.4295 13.8456 56.0343 13.787 55.6297 13.7849C55.0819 13.782 54.5376 13.8063 54.0079 13.9653C53.4645 14.1281 52.9992 14.4106 52.66 14.8787C52.3783 15.2677 52.2377 15.7062 52.2124 16.1875C52.1993 16.4371 52.1915 16.6835 52.2592 16.927C52.4009 17.4383 52.7093 17.8313 53.1282 18.1361C53.3352 18.2868 53.558 18.418 53.7834 18.5394C54.7087 19.0386 55.6378 19.5311 56.5657 20.0257C57.0708 20.2946 57.5698 20.5727 58.0208 20.9312C58.6142 21.4031 59.1071 21.959 59.4361 22.6503C59.6781 23.1584 59.8064 23.6919 59.8012 24.2616C59.7916 25.26 59.4835 26.1488 58.8791 26.9343C58.5122 27.4113 58.0557 27.785 57.5387 28.0845C56.8126 28.5054 56.025 28.745 55.2039 28.8855C54.6262 28.9844 54.0451 29.0378 53.4587 29.0342C53.0288 29.0316 52.5981 29.0448 52.1691 29.0237C51.5514 28.9932 50.9371 28.9245 50.3397 28.745C50.2168 28.7081 50.1503 28.6488 50.1102 28.5195C49.8326 27.6204 49.5451 26.7246 49.2622 25.8273C49.25 25.7886 49.2517 25.7452 49.2471 25.7041C49.2784 25.7311 49.3156 25.7534 49.3403 25.7857C49.6482 26.1852 50.0545 26.4553 50.4988 26.67C51.2203 27.0191 51.9873 27.2139 52.7764 27.3236C53.7561 27.46 54.6849 27.269 55.5536 26.8152C56.293 26.4289 56.7874 25.8235 56.9828 24.9908C57.115 24.4282 56.9828 23.9289 56.6323 23.4801C56.3688 23.1431 56.027 22.9082 55.657 22.7096C54.6579 22.1731 53.6585 21.6378 52.6588 21.1028C52.1238 20.8165 51.604 20.5067 51.1343 20.1175C50.4463 19.5473 49.893 18.8753 49.5756 18.0234C49.3757 17.4872 49.3272 16.9361 49.3836 16.3679C49.4402 15.7971 49.5933 15.2571 49.8491 14.7473C50.2857 13.8773 50.949 13.2367 51.8073 12.7955C52.4035 12.489 53.0375 12.3048 53.6951 12.2001C54.2545 12.1109 54.8182 12.0643 55.3848 12.0874C55.7514 12.1024 56.117 12.1402 56.4833 12.1646C56.9128 12.193 57.3389 12.2479 57.7586 12.3459C57.8988 12.3787 58.0348 12.4327 58.1713 12.4805C58.279 12.518 58.3249 12.5881 58.322 12.7131C58.3127 13.0792 58.3188 13.4455 58.3188 13.8119L58.3182 13.8122Z" fill="white"/>
<path d="M5.23887 12.4081C6.92717 12.4081 8.61547 12.4081 10.3041 12.4081C10.4481 12.4081 10.5203 12.4803 10.5207 12.6248C10.5216 13.4549 10.5231 14.2853 10.5222 15.1154C10.5222 15.1647 10.503 15.214 10.4928 15.2633C10.4748 15.2169 10.4513 15.1718 10.44 15.1237C10.3041 14.5567 9.91982 14.2537 9.38425 14.1175C9.27331 14.0894 9.15452 14.0824 9.03951 14.0821C7.42846 14.0797 5.81771 14.0803 4.20666 14.0806C4.05709 14.0806 4.05593 14.0818 4.05593 14.2349C4.05593 15.7927 4.05651 17.3506 4.05709 18.9087C4.05709 19.0568 4.05825 19.058 4.21276 19.058C5.81887 19.058 7.42498 19.058 9.03109 19.058C9.2736 19.058 9.25181 19.0436 9.25181 19.2783C9.2524 20.0987 9.25181 20.9191 9.25181 21.7396C9.25181 21.7786 9.25443 21.8182 9.24949 21.8566C9.24717 21.8763 9.2309 21.8942 9.22074 21.9126C9.20941 21.8933 9.19111 21.8754 9.18792 21.8548C9.10515 21.2999 8.75982 20.9802 8.26143 20.7957C8.08978 20.732 7.91175 20.7276 7.73226 20.7276C6.5711 20.7279 5.41023 20.7276 4.24907 20.7276C4.22496 20.7276 4.20057 20.727 4.17646 20.7276C4.0658 20.7317 4.06116 20.7361 4.0568 20.8423C4.05593 20.8617 4.0568 20.8813 4.0568 20.901C4.05651 22.9422 4.05273 24.9837 4.05796 27.025C4.05941 27.5679 4.26911 28.0205 4.70534 28.3534C4.84649 28.4611 5.00623 28.528 5.18166 28.5547C5.20547 28.5582 5.22958 28.5623 5.25165 28.5714C5.26211 28.5758 5.26762 28.5922 5.27547 28.6031C5.26762 28.6078 5.26007 28.616 5.25194 28.6168C5.21825 28.6195 5.18456 28.6212 5.15058 28.6212C3.4768 28.6212 1.80273 28.6215 0.128953 28.6207C0.0877115 28.6207 0.0467601 28.6086 0.00551827 28.6019C0.0467601 28.5849 0.0865497 28.5611 0.129534 28.5523C0.348813 28.5069 0.54021 28.4065 0.700239 28.2508C1.01681 27.9431 1.19746 27.5711 1.2056 27.1218C1.20647 27.0731 1.20705 27.0241 1.20705 26.9754C1.20705 22.6729 1.20589 18.3705 1.20937 14.0677C1.20937 13.7527 1.16261 13.4549 1.00374 13.1821C0.796954 12.8272 0.52046 12.5618 0.100491 12.4884C0.0766749 12.4843 0.0528592 12.4787 0.0304957 12.4699C0.0188783 12.4655 0.0101652 12.4529 0 12.4441C0.0098748 12.4345 0.0188783 12.4177 0.029334 12.4169C0.0821932 12.4122 0.135343 12.4098 0.188492 12.4098C1.87186 12.4095 3.55551 12.4098 5.23887 12.4098V12.4075V12.4081Z" fill="white"/>
<path d="M44.8676 20.713C44.8676 22.8132 44.8693 24.9131 44.8656 27.0133C44.865 27.3198 44.9274 27.6046 45.0808 27.8672C45.2719 28.1942 45.5333 28.4368 45.9059 28.5374C45.957 28.5512 46.0104 28.5553 46.0621 28.5673C46.0723 28.5697 46.0793 28.587 46.0874 28.5975C46.0767 28.6046 46.0659 28.6172 46.0546 28.6181C46.0163 28.6213 45.9773 28.621 45.9387 28.621C44.2745 28.621 42.61 28.621 40.9458 28.621C40.9217 28.621 40.8968 28.6245 40.8735 28.6198C40.8488 28.6148 40.8259 28.6022 40.8021 28.5931C40.8259 28.5805 40.8485 28.5603 40.8735 28.5568C41.2331 28.5063 41.4959 28.3022 41.7039 28.0176C41.9171 27.7258 42.0181 27.3949 42.0181 27.0318C42.0175 22.773 42.0175 18.5142 42.0173 14.2555C42.0173 14.2505 42.0173 14.2458 42.0173 14.2408C42.0164 14.0827 42.0164 14.0818 41.8564 14.0818C41.0147 14.0818 40.1727 14.0894 39.331 14.0789C38.8155 14.0724 38.3796 14.2587 37.9831 14.5714C37.7473 14.7573 37.5634 14.9882 37.4028 15.2399C37.3871 15.2645 37.3732 15.2903 37.3549 15.3129C37.3473 15.3223 37.3308 15.324 37.3186 15.3293C37.3137 15.317 37.3032 15.3038 37.3049 15.2927C37.3093 15.2639 37.3183 15.2357 37.3267 15.2079C37.5931 14.3308 37.8591 13.4541 38.126 12.5774C38.1774 12.409 38.1786 12.4087 38.3575 12.4087C42.0053 12.4087 45.6532 12.4087 49.3011 12.4087C49.5058 12.4087 49.5064 12.4093 49.4457 12.6114C49.1898 13.4608 48.9343 14.3106 48.6766 15.1595C48.6589 15.2179 48.6264 15.2715 48.6008 15.3273C48.5837 15.2707 48.5584 15.2152 48.5503 15.1574C48.469 14.5854 47.9337 14.0909 47.3578 14.0836C46.5692 14.0736 45.7807 14.0803 44.9922 14.0815C44.8757 14.0815 44.8734 14.0871 44.8702 14.2079C44.869 14.247 44.8702 14.286 44.8702 14.3253C44.8702 16.4548 44.8702 18.584 44.8702 20.7136H44.8682L44.8676 20.713Z" fill="white"/>
<path d="M28.5193 12.4106C29.3467 12.4106 30.1739 12.41 31.0013 12.4117C31.0559 12.4117 31.1105 12.4302 31.1651 12.4402C31.1155 12.4595 31.067 12.4848 31.0158 12.4968C30.6217 12.5909 30.3519 12.8414 30.1573 13.1867C30.0054 13.4563 29.9476 13.7472 29.9479 14.0576C29.9508 19.1614 29.9494 24.2655 29.952 29.3694C29.9523 30.0141 29.8686 30.6433 29.6627 31.2546C29.4513 31.8826 29.121 32.4399 28.6822 32.9333C28.1237 33.561 27.4481 34.0227 26.6971 34.3811C26.1392 34.6471 25.5577 34.8405 24.9556 34.9719C24.9083 34.9821 24.8612 34.9939 24.8136 35.0003C24.7965 35.0027 24.7776 34.9921 24.7596 34.9874C24.7674 34.9666 24.7695 34.9384 24.7846 34.9255C24.8845 34.8407 24.9887 34.7613 25.0884 34.6762C25.7831 34.0837 26.2757 33.3454 26.6219 32.5024C26.8699 31.8987 27.0166 31.2689 27.0909 30.6213C27.1025 30.5198 27.0993 30.4165 27.0993 30.3139C27.0993 24.8877 27.0976 19.4612 27.0993 14.035C27.0993 13.6158 26.9756 13.2477 26.7133 12.9274C26.5295 12.7027 26.3006 12.5461 26.0108 12.4939C25.987 12.4895 25.9631 12.4848 25.9402 12.4768C25.9193 12.4695 25.8998 12.4578 25.8795 12.4481C25.903 12.4361 25.926 12.4167 25.9507 12.4132C25.9934 12.4073 26.0375 12.4106 26.0811 12.4106C26.894 12.4106 27.7066 12.4106 28.5196 12.4106H28.5193Z" fill="white"/>
<path d="M31.0702 3.03562C31.0702 2.68891 31.0722 2.3422 31.0687 1.99549C31.0679 1.91189 31.0911 1.84502 31.1431 1.78195C31.6952 1.11141 32.3658 0.607189 33.1747 0.293332C33.766 0.0639526 34.3788 -0.0325509 35.0091 0.010861C36.0067 0.0792055 36.9033 0.420635 37.6814 1.06067C38.354 1.61417 38.8332 2.30583 39.1121 3.13652C39.3058 3.71349 39.3734 4.30923 39.3188 4.9126C39.2294 5.90081 38.8507 6.76787 38.1917 7.50763C37.4978 8.28612 36.6367 8.77479 35.6236 8.9725C34.3934 9.21273 33.2415 8.98335 32.177 8.31398C31.7495 8.045 31.4016 7.68656 31.0687 7.31023C30.8175 7.026 30.5619 6.74617 30.3078 6.46487C30.1742 6.31703 30.0429 6.16656 29.9038 6.0243C29.4664 5.57698 28.9352 5.34378 28.3125 5.31445C27.7621 5.28864 27.2571 5.42239 26.806 5.74329C26.251 6.13781 25.9054 6.67547 25.8357 7.35745C25.7392 8.3002 26.0997 9.04876 26.8789 9.57645C27.4174 9.94105 28.0244 10.0296 28.6573 9.9475C29.4586 9.84367 30.083 9.42509 30.5796 8.8009C30.7304 8.61141 30.8518 8.39846 30.9863 8.19607C30.9996 8.17583 31.0089 8.15236 31.0243 8.13388C31.0353 8.12068 31.0533 8.11306 31.0684 8.10308C31.0728 8.11658 31.0804 8.12978 31.0809 8.14356C31.083 8.17759 31.0824 8.21191 31.0824 8.24593C31.0827 8.76863 31.0801 9.29104 31.0856 9.81375C31.0867 9.93078 31.0513 10.0173 30.9723 10.1C30.3371 10.7632 29.5713 11.1642 28.6619 11.2727C27.5792 11.4021 26.605 11.1249 25.7663 10.4233C25.0378 9.81375 24.5993 9.02999 24.4791 8.07287C24.245 6.21114 25.4848 4.52834 27.2675 4.08132C27.6262 3.99127 27.991 3.94551 28.3596 3.96809C29.3441 4.02793 30.205 4.38227 30.8913 5.11059C31.401 5.65177 31.8881 6.21466 32.3952 6.75878C32.6972 7.0829 33.0663 7.31551 33.4753 7.48153C33.9687 7.68158 34.484 7.75872 35.0108 7.70974C35.7337 7.64227 36.377 7.37329 36.9207 6.87757C37.4281 6.415 37.7688 5.85153 37.9006 5.17307C38.0857 4.22035 37.8928 3.34889 37.2919 2.5839C36.7499 1.894 36.0349 1.49273 35.1749 1.37306C34.1183 1.2261 33.1848 1.51825 32.3809 2.22692C31.8175 2.72352 31.4431 3.34918 31.1657 4.04143C31.1445 4.09422 31.1167 4.14438 31.0917 4.19571C31.0835 4.13646 31.0693 4.0775 31.0687 4.01825C31.0664 3.6909 31.0676 3.36385 31.0676 3.0365H31.0696L31.0702 3.03562Z" fill="white"/>
<path d="M34.6606 28.621C33.843 28.621 33.0254 28.621 32.2078 28.621C32.1739 28.621 32.1396 28.6242 32.1065 28.6195C32.0821 28.616 32.0589 28.6022 32.035 28.5928C32.0589 28.5802 32.0815 28.5603 32.1065 28.5565C32.5116 28.4966 32.789 28.2523 33.0002 27.9191C33.1709 27.6495 33.2511 27.3521 33.2511 27.0309C33.2502 22.6747 33.2511 18.3189 33.2499 13.9627C33.2499 13.5227 33.0969 13.1429 32.787 12.8305C32.6113 12.6533 32.4042 12.5348 32.1576 12.4917C32.1291 12.4867 32.1001 12.4817 32.0728 12.4721C32.0583 12.4671 32.0469 12.4521 32.0339 12.4418C32.0493 12.4325 32.0641 12.4166 32.0803 12.4146C32.1233 12.4099 32.1672 12.4102 32.2108 12.4102C32.8639 12.4102 33.5168 12.4102 34.17 12.4102C35.1569 12.4102 36.1438 12.4102 37.1307 12.4102C37.1789 12.4102 37.2274 12.4122 37.2754 12.4172C37.2861 12.4184 37.2951 12.4351 37.3047 12.4445C37.2945 12.4533 37.2858 12.4659 37.2742 12.4703C37.2518 12.4788 37.2277 12.4835 37.2042 12.4888C36.6103 12.6158 36.2914 13.0217 36.1386 13.582C36.0997 13.7248 36.1 13.8815 36.0997 14.0317C36.0974 15.8532 36.0982 17.6747 36.0982 19.4963C36.0982 21.9919 36.0991 24.4872 36.0971 26.9828C36.0971 27.2098 36.1168 27.4307 36.2019 27.6425C36.3114 27.9147 36.4709 28.1482 36.7044 28.3286C36.8656 28.4532 37.0433 28.5333 37.2454 28.5579C37.2652 28.5603 37.2829 28.5805 37.3015 28.5923C37.2823 28.6013 37.2637 28.6163 37.2437 28.6187C37.2054 28.6231 37.1664 28.6207 37.1278 28.6207C36.3053 28.6207 35.4831 28.6207 34.6606 28.6207V28.621Z" fill="white"/>
</g>
<defs>
<clipPath id="clip0_475_2150">
<rect width="74" height="35" fill="white" transform="translate(0.5)"/>
</clipPath>
</defs>
</svg>
